<svg width="272" height="46" viewBox="0 0 272 46" fill="none" xmlns="http://www.w3.org/2000/svg">
        <path d="M1 1V45H271V1H1Z" stroke="#1B1918" stroke-width="0.666667"/>
        <path fill-rule="evenodd" clip-rule="evenodd" d="M1 1V45H271V1H1Z" fill="#379829" stroke="#1B1918" stroke-width="0.666667"/>
        <path fill-rule="evenodd" clip-rule="evenodd" d="M49.6288 23.5681L59.0456 23.5842C61.5166 23.5842 62.8333 23.5364 64.6818 25.459C68.3667 29.2892 65.7184 35.021 59.1916 33.5931C60.5954 39.9818 53.6201 42.3347 50.6824 37.9322C49.5341 36.2124 49.6807 34.5494 49.633 32.5795L49.6288 23.5681Z" fill="#102A83"/>
        <path fill-rule="evenodd" clip-rule="evenodd" d="M48.3817 23.5681L38.9648 23.5842C36.494 23.5842 35.1772 23.5364 33.3287 25.459C29.6438 29.2892 32.2921 35.021 38.8189 33.5931C37.4151 39.9818 44.3904 42.3347 47.3281 37.9322C48.4764 36.2124 48.3298 34.5494 48.3775 32.5795L48.3817 23.5681Z" fill="#F07C00"/>
        <path fill-rule="evenodd" clip-rule="evenodd" d="M48.382 22.432L38.9652 22.4158C36.4943 22.4158 35.1776 22.4636 33.3291 20.5411C29.6442 16.7108 32.2924 10.979 38.8193 12.4069C37.4154 6.01819 44.3908 3.66531 47.3284 8.0679C48.4768 9.7876 48.3302 11.4506 48.3779 13.4206L48.382 22.432Z" fill="#102A83"/>
        <path fill-rule="evenodd" clip-rule="evenodd" d="M49.6292 22.432L59.046 22.4158C61.5169 22.4158 62.8336 22.4636 64.6821 20.5411C68.3671 16.7108 65.7188 10.979 59.1919 12.4069C60.5958 6.01819 53.6205 3.66531 50.6828 8.0679C49.5344 9.7876 49.6811 11.4506 49.6334 13.4206L49.6292 22.432Z" fill="#F07C00"/>
        <path fill-rule="evenodd" clip-rule="evenodd" d="M49.6288 23.5681L59.0456 23.5842C61.5166 23.5842 62.8333 23.5364 64.6818 25.459C68.3667 29.2892 65.7184 35.021 59.1916 33.5931C60.5954 39.9818 53.6201 42.3347 50.6824 37.9322C49.5341 36.2124 49.6807 34.5494 49.633 32.5795L49.6288 23.5681Z" fill="white"/>
        <path fill-rule="evenodd" clip-rule="evenodd" d="M48.3817 23.5681L38.9648 23.5842C36.494 23.5842 35.1772 23.5364 33.3287 25.459C29.6438 29.2892 32.2921 35.021 38.8189 33.5931C37.4151 39.9818 44.3904 42.3347 47.3281 37.9322C48.4764 36.2124 48.3298 34.5494 48.3775 32.5795L48.3817 23.5681Z" fill="#79C498"/>
        <path fill-rule="evenodd" clip-rule="evenodd" d="M48.382 22.432L38.9652 22.4158C36.4943 22.4158 35.1776 22.4636 33.3291 20.5411C29.6442 16.7108 32.2924 10.979 38.8193 12.4069C37.4154 6.01819 44.3908 3.66531 47.3284 8.0679C48.4768 9.7876 48.3302 11.4506 48.3779 13.4206L48.382 22.432Z" fill="white"/>
        <path fill-rule="evenodd" clip-rule="evenodd" d="M49.6292 22.432L59.046 22.4158C61.5169 22.4158 62.8336 22.4636 64.6821 20.5411C68.3671 16.7108 65.7188 10.979 59.1919 12.4069C60.5958 6.01819 53.6205 3.66531 50.6828 8.0679C49.5344 9.7876 49.6811 11.4506 49.6334 13.4206L49.6292 22.432Z" fill="#79C498"/>
        <path d="M71.8236 11.8107H74.8744L82.048 29.2291H82.2953L89.4689 11.8107H92.5197V32.7948H90.1285V16.8518H89.9224L83.326 32.7948H81.0173L74.4209 16.8518H74.2148V32.7948H71.8236V11.8107Z" fill="white"/>
        <path d="M97.6447 32.7948V11.8107H110.384V14.0649H100.201V21.1552H109.724V23.4093H100.201V30.5406H110.549V32.7948H97.6447Z" fill="white"/>
        <path d="M129.421 18.3682C129.194 17.6783 128.895 17.0602 128.524 16.5137C128.16 15.9604 127.723 15.4891 127.215 15.0997C126.713 14.7104 126.143 14.4132 125.504 14.2083C124.865 14.0034 124.164 13.9009 123.401 13.9009C122.151 13.9009 121.014 14.222 119.99 14.8641C118.966 15.5062 118.152 16.4522 117.547 17.7022C116.943 18.9523 116.64 20.4858 116.64 22.3027C116.64 24.1197 116.946 25.6532 117.558 26.9032C118.169 28.1533 118.997 29.0993 120.041 29.7414C121.086 30.3835 122.261 30.7045 123.566 30.7045C124.776 30.7045 125.841 30.4484 126.761 29.9361C127.689 29.417 128.411 28.6861 128.926 27.7434C129.448 26.794 129.709 25.6771 129.709 24.393L130.493 24.5569H124.144V22.3027H132.183V24.5569C132.183 26.2851 131.812 27.7878 131.07 29.0652C130.335 30.3425 129.318 31.333 128.019 32.0365C126.727 32.7333 125.243 33.0816 123.566 33.0816C121.697 33.0816 120.055 32.6445 118.64 31.7701C117.231 30.8958 116.132 29.6526 115.342 28.0406C114.558 26.4285 114.167 24.5159 114.167 22.3027C114.167 20.6429 114.39 19.1504 114.837 17.8252C115.29 16.4932 115.929 15.3593 116.754 14.4235C117.578 13.4877 118.554 12.7705 119.681 12.2718C120.808 11.7732 122.048 11.5238 123.401 11.5238C124.515 11.5238 125.552 11.6912 126.514 12.0259C127.483 12.3538 128.345 12.8217 129.101 13.4296C129.864 14.0307 130.499 14.7514 131.008 15.5916C131.516 16.4249 131.867 17.3505 132.059 18.3682H129.421Z" fill="white"/>
        <path d="M136.775 32.7948H134.095L141.846 11.8107H144.484L152.235 32.7948H149.555L143.247 15.1305H143.082L136.775 32.7948ZM137.764 24.5979H148.566V26.852H137.764V24.5979Z" fill="white"/>
        <path d="M164.263 21.1757V23.4298H155.028V21.1757H164.263Z" fill="white"/>
        <path d="M180.416 17.0567C180.293 16.0185 179.791 15.2124 178.911 14.6387C178.032 14.0649 176.953 13.778 175.675 13.778C174.741 13.778 173.923 13.9283 173.222 14.2288C172.528 14.5294 171.985 14.9426 171.594 15.4686C171.209 15.9946 171.016 16.5923 171.016 17.2617C171.016 17.8218 171.15 18.3034 171.418 18.7064C171.693 19.1025 172.044 19.4338 172.47 19.7002C172.896 19.9598 173.342 20.175 173.81 20.3457C174.277 20.5097 174.706 20.6429 175.098 20.7453L177.242 21.3191C177.791 21.4626 178.403 21.6607 179.076 21.9134C179.757 22.1661 180.406 22.5111 181.024 22.9483C181.65 23.3786 182.165 23.9319 182.57 24.6081C182.976 25.2844 183.178 26.1143 183.178 27.0979C183.178 28.2318 182.88 29.2564 182.282 30.1718C181.691 31.0871 180.825 31.8145 179.684 32.3542C178.551 32.8938 177.173 33.1636 175.551 33.1636C174.04 33.1636 172.731 32.9211 171.624 32.4361C170.525 31.9512 169.659 31.2749 169.027 30.4074C168.402 29.5399 168.048 28.5324 167.966 27.3848H170.604C170.673 28.1772 170.941 28.8329 171.408 29.3521C171.882 29.8644 172.48 30.2469 173.201 30.4996C173.93 30.7455 174.713 30.8685 175.551 30.8685C176.527 30.8685 177.403 30.7114 178.18 30.3972C178.956 30.0761 179.571 29.6321 180.025 29.0652C180.478 28.4914 180.705 27.822 180.705 27.0569C180.705 26.3602 180.509 25.7933 180.117 25.3561C179.726 24.9189 179.21 24.5637 178.571 24.2905C177.932 24.0173 177.242 23.7782 176.5 23.5733L173.902 22.8355C172.253 22.3642 170.948 21.6914 169.986 20.8171C169.024 19.9427 168.543 18.7986 168.543 17.3846C168.543 16.2097 168.862 15.1851 169.501 14.3108C170.147 13.4296 171.013 12.7466 172.099 12.2616C173.191 11.7698 174.411 11.5238 175.758 11.5238C177.118 11.5238 178.327 11.7663 179.386 12.2513C180.444 12.7295 181.282 13.3852 181.9 14.2186C182.526 15.0519 182.855 15.998 182.89 17.0567H180.416Z" fill="white"/>
        <path d="M187.381 32.7948V11.8107H200.12V14.0649H189.937V21.1552H199.461V23.4093H189.937V30.5406H200.285V32.7948H187.381Z" fill="white"/>
        <path d="M221.466 11.8107V32.7948H218.992L207.49 16.319H207.283V32.7948H204.727V11.8107H207.201L218.745 28.3275H218.951V11.8107H221.466Z" fill="white"/>
        <path d="M227.446 32.7948H224.766L232.517 11.8107H235.156L242.906 32.7948H240.227L233.919 15.1305H233.754L227.446 32.7948ZM228.436 24.5979H239.237V26.852H228.436V24.5979Z" fill="white"/>
        </svg>